<svg width="215" height="88" viewBox="0 0 215 88" fill="none" xmlns="http://www.w3.org/2000/svg">
<g filter="url(#filter0_d)">
<path d="M46.5768 21.0942H16.209V58.9057H36.4828L40.6694 41.7109L35.6586 42.0471L46.5768 21.0942ZM30.3907 30.1532L27.3711 35.6188L24.9251 27.1401L30.3907 30.1532ZM31.1951 53.4136L25.1031 43.1811L33.2587 45.2514L31.1951 53.4136Z" fill="url(#paint0_linear)"/>
<path d="M40.0222 42.2554L36.0899 58.4057H16.709V21.5942H45.7525L35.2152 41.8161L34.8038 42.6056L35.6921 42.546L40.0222 42.2554ZM30.8284 30.395L31.0704 29.9569L30.6321 29.7153L25.1665 26.7022L24.1104 26.1201L24.4447 27.2787L26.8907 35.7574L27.2252 36.9169L27.8088 35.8606L30.8284 30.395ZM30.7655 53.6694L31.3837 54.7077L31.6799 53.5362L33.7435 45.3739L33.8659 44.8896L33.3818 44.7667L25.2261 42.6965L24.0558 42.3994L24.6735 43.4369L30.7655 53.6694Z" stroke="#489BFF"/>
</g>
<g filter="url(#filter1_d)">
<path d="M65.9538 21.0942H47.9876L41.078 38.0121L48.4294 37.6034L37.7749 58.9057H65.9538V46.8073L50.7699 48.4556L65.9538 39.0934V21.0942Z" fill="url(#paint1_linear)"/>
<path d="M50.8239 48.9527L65.4538 47.3646V58.4057H38.584L48.8765 37.827L49.262 37.0563L48.4016 37.1041L41.84 37.469L48.3235 21.5942H65.4538V38.8143L50.5075 48.03L50.8239 48.9527Z" stroke="#F5656E"/>
</g>
<path d="M87.4872 33.1204V33.9709C87.4872 36.4301 86.7026 37.9992 84.9488 38.7838C87.0586 39.5684 87.8828 41.3749 87.8828 43.9001V45.845C87.8828 49.5306 85.8455 51.5085 81.9094 51.5085H75.7185V27.6283H81.6589C85.7334 27.6283 87.4872 29.4348 87.4872 33.1204ZM79.6546 31.0369V37.3531H81.1908C82.6544 37.3531 83.5511 36.74 83.5511 34.828V33.4962C83.5511 31.7885 82.9445 31.0369 81.5468 31.0369H79.6546ZM79.6546 40.7618V48.0999H81.9094C83.2346 48.0999 83.9467 47.5197 83.9467 45.7461V43.6627C83.9467 41.4474 83.1951 40.7618 81.4084 40.7618H79.6546Z" fill="white"/>
<path d="M102.974 51.5151H99.0054L98.3263 47.1834H93.4935L92.8144 51.5151H89.2014L93.21 27.6283H98.9724L102.974 51.5151ZM93.9946 43.9396H97.7856L95.8868 31.8611L93.9946 43.9396Z" fill="white"/>
<path d="M103.654 27.6283H115.818V31.0435H111.704V51.5151H107.768V31.0369H103.654V27.6283Z" fill="white"/>
<path d="M116.391 27.6283H128.556V31.0435H124.442V51.5151H120.505V31.0369H116.391V27.6283Z" fill="white"/>
<path d="M130.27 27.6283H134.206V48.0999H140.68V51.5151H130.27V27.6283Z" fill="white"/>
<path d="M146.331 37.6894H151.73V41.1046H146.331V48.0999H153.128V51.5151H142.395V27.6283H153.128V31.0435H146.331V37.6894Z" fill="white"/>
<path d="M172.017 27.6283V30.971L164.541 48.0999H172.017V51.5151H160.499V48.1724L167.976 31.0435H160.855V27.6283H172.017Z" fill="white"/>
<path d="M174.022 33.3578C174.022 29.5338 176.132 27.3514 179.995 27.3514C183.859 27.3514 185.968 29.5338 185.968 33.3578V45.7792C185.968 49.6032 183.859 51.7855 179.995 51.7855C176.132 51.7855 174.022 49.6032 174.022 45.7792V33.3578ZM177.958 46.0165C177.958 47.7241 178.742 48.3702 179.995 48.3702C181.248 48.3702 182.032 47.7241 182.032 46.0165V33.1204C182.032 31.4128 181.248 30.7667 179.995 30.7667C178.742 30.7667 177.958 31.4128 177.958 33.1204V46.0165Z" fill="white"/>
<path d="M192.014 34.2148V51.5151H188.474V27.6283H193.412L197.454 41.9287V27.6283H200.961V51.5151H196.92L192.014 34.2148Z" fill="white"/>
<path d="M207.719 37.6894H213.119V41.1046H207.719V48.0999H214.517V51.5151H203.783V27.6283H214.517V31.0435H207.719V37.6894Z" fill="white"/>
<defs>
<filter id="filter0_d" x="-8.79102" y="0.0942383" width="80.3678" height="87.8114" filterUnits="userSpaceOnUse" color-interpolation-filters="sRGB">
<feFlood flood-opacity="0" result="BackgroundImageFix"/>
<feColorMatrix in="SourceAlpha" type="matrix" values="0 0 0 0 0 0 0 0 0 0 0 0 0 0 0 0 0 0 127 0"/>
<feOffset dy="4"/>
<feGaussianBlur stdDeviation="12.5"/>
<feColorMatrix type="matrix" values="0 0 0 0 0.054902 0 0 0 0 0.337255 0 0 0 0 0.654902 0 0 0 1 0"/>
<feBlend mode="normal" in2="BackgroundImageFix" result="effect1_dropShadow"/>
<feBlend mode="normal" in="SourceGraphic" in2="effect1_dropShadow" result="shape"/>
</filter>
<filter id="filter1_d" x="12.7749" y="0.0942383" width="78.1789" height="87.8114" filterUnits="userSpaceOnUse" color-interpolation-filters="sRGB">
<feFlood flood-opacity="0" result="BackgroundImageFix"/>
<feColorMatrix in="SourceAlpha" type="matrix" values="0 0 0 0 0 0 0 0 0 0 0 0 0 0 0 0 0 0 127 0"/>
<feOffset dy="4"/>
<feGaussianBlur stdDeviation="12.5"/>
<feColorMatrix type="matrix" values="0 0 0 0 0.94902 0 0 0 0 0.286275 0 0 0 0 0.286275 0 0 0 0.25 0"/>
<feBlend mode="normal" in2="BackgroundImageFix" result="effect1_dropShadow"/>
<feBlend mode="normal" in="SourceGraphic" in2="effect1_dropShadow" result="shape"/>
</filter>
<linearGradient id="paint0_linear" x1="22.3129" y1="19.6574" x2="48.7419" y2="53.6585" gradientUnits="userSpaceOnUse">
<stop stop-color="#429AFF"/>
<stop offset="1" stop-color="#0B6AD3"/>
</linearGradient>
<linearGradient id="paint1_linear" x1="43.4389" y1="19.6574" x2="87.2665" y2="62.6566" gradientUnits="userSpaceOnUse">
<stop stop-color="#F24949"/>
<stop offset="1" stop-color="#D72222"/>
</linearGradient>
</defs>
</svg>
